<?xml version="1.0" standalone="no"?>
<!DOCTYPE svg PUBLIC "-//W3C//DTD SVG 20010904//EN"
 "http://www.w3.org/TR/2001/REC-SVG-20010904/DTD/svg10.dtd">
<svg version="1.0" xmlns="http://www.w3.org/2000/svg"
 width="969.000000pt" height="969.000000pt" viewBox="0 0 969.000000 969.000000"
 preserveAspectRatio="xMidYMid meet">

<g transform="translate(0.000000,969.000000) scale(0.100000,-0.100000)"
fill="#000000" stroke="none">
<path d="M4536 9679 c-939 -60 -1872 -408 -2617 -975 -148 -113 -334 -272
-424 -363 l-70 -71 1602 2 c880 2 1599 0 1596 -4 -2 -5 -22 -8 -45 -8 -185 0
-590 -105 -891 -230 l-144 -60 -1199 0 -1199 0 -56 -68 c-117 -140 -299 -397
-299 -421 0 -5 55 -106 123 -223 68 -117 218 -377 334 -578 116 -201 248 -430
294 -509 l83 -144 -30 -23 c-36 -29 -231 -131 -237 -124 -3 3 -64 109 -137
235 -73 127 -172 298 -219 380 -48 83 -157 270 -241 417 -144 249 -155 265
-168 246 -8 -11 -47 -86 -87 -166 -267 -536 -423 -1094 -487 -1732 -16 -163
-16 -670 0 -830 96 -950 408 -1764 957 -2495 143 -191 241 -304 418 -484 750
-762 1718 -1252 2767 -1400 221 -31 596 -59 587 -44 -373 646 -457 795 -453
802 12 18 248 152 256 145 4 -5 58 -97 120 -204 149 -258 160 -275 189 -275
26 0 39 21 286 450 137 239 232 401 279 482 20 34 41 50 105 82 106 54 392
183 395 179 2 -2 -100 -181 -226 -398 -404 -697 -728 -1258 -728 -1262 0 -5
156 1 290 12 899 75 1792 419 2511 966 359 274 711 631 976 991 485 658 797
1440 903 2263 120 934 -46 1914 -466 2751 -41 82 -77 149 -82 149 -10 0 -66
-91 -127 -205 -21 -38 -43 -73 -49 -77 -6 -4 -7 -8 -3 -8 4 0 -3 -15 -16 -32
-13 -18 -31 -46 -39 -63 -17 -34 -35 -66 -102 -178 -25 -43 -46 -83 -46 -88 0
-5 -4 -9 -9 -9 -5 0 -13 -10 -17 -22 -3 -13 -21 -45 -39 -73 -50 -77 -165
-281 -165 -293 0 -6 -4 -12 -9 -14 -4 -1 -120 -196 -256 -433 -137 -236 -285
-493 -330 -571 -45 -77 -85 -149 -90 -160 -6 -12 -11 28 -16 121 -6 138 -17
210 -46 313 l-15 53 53 92 c28 51 61 108 72 127 11 19 30 52 41 72 12 20 73
125 136 234 63 109 122 210 130 225 23 41 111 196 142 248 16 25 33 57 40 71
7 14 26 48 43 75 50 82 53 87 85 148 16 32 38 71 48 85 10 15 23 38 30 52 7
14 21 39 31 55 11 17 30 50 43 75 66 123 91 165 99 168 5 2 9 8 9 13 0 7 33
65 90 159 56 93 90 155 90 165 0 28 -228 346 -322 450 l-46 50 -1467 3 -1467
3 -71 55 c-164 124 -377 206 -607 233 l-75 8 110 2 c61 1 322 1 580 1 259 0
973 3 1588 6 l1118 7 -63 64 c-150 153 -437 382 -673 538 -881 580 -1932 861
-2979 794z m1620 -1900 c250 -44 487 -201 664 -440 65 -88 90 -145 115 -269
64 -316 297 -695 649 -1057 53 -55 58 -63 37 -63 -33 0 -190 54 -261 90 l-61
31 41 -63 c169 -261 286 -538 340 -803 26 -125 44 -334 35 -394 l-8 -46 -18
52 c-22 64 -142 299 -170 333 -17 20 -20 21 -14 5 19 -58 35 -229 35 -376 l0
-166 -180 -86 c-99 -48 -182 -87 -184 -87 -2 0 -7 37 -10 83 -8 92 -39 234
-59 274 -13 25 -14 22 -21 -48 -7 -75 -29 -216 -47 -301 l-10 -46 -122 -60
c-129 -64 -257 -145 -413 -263 -111 -84 -109 -77 -50 -205 156 -338 596 -773
1128 -1119 59 -38 104 -72 100 -76 -4 -4 -76 -42 -160 -84 l-152 -78 -63 44
c-493 342 -933 761 -1117 1062 -29 48 -54 87 -56 87 -2 0 -31 -39 -65 -87
-216 -305 -480 -556 -741 -706 -71 -41 -75 -33 -15 33 250 269 453 689 523
1078 10 56 22 102 26 102 5 0 8 -63 8 -140 0 -247 -56 -449 -176 -637 -19 -29
-30 -53 -25 -53 15 0 218 215 277 295 32 44 87 125 121 180 126 205 316 388
605 579 l86 58 21 76 c25 94 46 212 62 357 17 141 17 643 0 835 -13 157 -38
397 -47 445 -5 29 -4 29 20 -9 56 -89 104 -287 126 -521 21 -232 7 -747 -30
-1040 -14 -111 -15 -107 23 -85 31 18 36 28 56 113 51 211 102 492 123 680 7
59 15 107 19 107 28 0 99 -521 99 -726 0 -69 4 -73 50 -49 l30 15 2 278 3 277
23 -235 c13 -129 26 -243 28 -252 5 -17 8 -16 45 2 l39 20 0 121 c0 121 -21
395 -44 589 -7 58 -12 107 -10 109 7 8 57 -44 85 -88 36 -55 36 -39 3 75 -42
148 -173 429 -288 619 -19 32 -34 60 -33 62 2 1 21 -4 42 -12 22 -8 60 -14 84
-15 l43 0 -63 68 c-68 72 -208 272 -254 362 -16 30 -47 99 -71 154 -78 178
-218 390 -364 549 -34 37 -59 67 -55 67 22 0 154 -102 249 -191 l108 -103 -27
55 c-120 239 -342 458 -557 547 -134 56 -235 75 -393 76 -77 1 -165 -2 -195
-6 -76 -10 -32 8 80 32 97 21 283 26 376 9z m-471 -211 c62 -15 165 -73 238
-134 123 -102 246 -292 320 -494 59 -161 53 -161 -52 -4 -201 301 -401 519
-587 641 -17 11 -15 12 11 7 17 -3 48 -10 70 -16z m341 -29 c86 -27 130 -49
221 -112 166 -113 282 -275 465 -647 67 -135 144 -279 172 -320 73 -107 74
-109 25 -69 -103 84 -281 333 -424 594 -83 150 -130 219 -210 304 -62 66 -202
184 -273 230 -75 48 -73 50 24 20z m500 -940 c29 -163 15 -234 -70 -343 -34
-45 -108 -141 -165 -214 l-103 -133 -41 38 c-89 82 -228 139 -361 148 l-71 5
61 -14 c151 -35 269 -101 379 -211 121 -121 184 -242 212 -405 85 -485 -307
-919 -800 -887 -186 12 -344 84 -478 217 -149 148 -218 297 -227 496 -3 64 0
139 7 178 35 201 160 390 331 501 36 23 310 172 610 330 300 159 577 306 615
327 39 21 75 36 80 35 6 -2 15 -32 21 -68z m431 -411 c97 -104 158 -248 192
-455 23 -142 44 -226 77 -308 l24 -60 -46 49 c-65 71 -120 193 -155 344 -16
70 -38 165 -49 210 -11 46 -40 126 -64 178 -25 52 -41 94 -37 94 5 0 30 -24
58 -52z m-4177 17 c0 -3 -40 -25 -89 -50 -49 -24 -92 -49 -96 -55 -3 -6 -11
-7 -17 -4 -12 8 70 64 95 64 9 0 17 4 17 9 0 5 17 16 38 24 40 17 52 20 52 12z
m250 -151 c-16 -82 -36 -204 -45 -271 -17 -127 -17 -295 -1 -258 5 11 38 90
73 175 36 85 83 189 104 230 l38 75 0 -95 c1 -98 -17 -249 -45 -380 -26 -127
-66 -294 -75 -315 -37 -92 -50 -115 -68 -125 -24 -12 -23 -14 -75 131 -38 107
-150 299 -174 299 -4 0 -45 -48 -92 -106 -75 -93 -85 -103 -88 -81 -2 14 1
185 7 379 l9 353 26 21 c26 23 140 64 242 88 l61 14 -19 -87 c-10 -47 -23
-101 -28 -120 -5 -19 -8 -36 -6 -38 2 -2 43 57 91 132 48 75 89 134 91 132 2
-2 -10 -70 -26 -153z m-1539 -229 c37 -3 103 -1 148 5 55 7 86 8 94 1 7 -5 25
-35 41 -65 l30 -55 -42 -133 c-23 -73 -48 -162 -56 -197 -8 -34 -16 -65 -18
-67 -5 -4 -292 493 -296 513 -3 10 2 13 15 10 10 -3 48 -8 84 -12z m6143
-1008 c20 -59 36 -113 36 -119 0 -6 -56 -108 -124 -227 -117 -204 -164 -285
-344 -596 -42 -71 -121 -210 -177 -307 l-102 -178 -111 114 -112 114 59 104
c32 57 98 171 146 253 48 83 117 203 153 267 l66 117 71 27 c119 46 291 133
354 179 60 44 61 46 61 92 0 45 -14 185 -26 263 -8 54 9 19 50 -103z m-1894
-739 c-22 -191 -76 -351 -168 -497 -51 -82 -169 -227 -178 -219 -1 2 39 87 89
188 99 197 174 379 228 551 19 59 36 100 37 92 2 -8 -1 -60 -8 -115z m-2975
-27 c-29 -27 -149 -112 -198 -140 -61 -35 -77 -34 -77 5 0 43 48 77 170 120
67 23 122 31 105 15z m847 -1466 c63 -110 210 -364 325 -565 116 -201 253
-439 306 -529 l94 -165 -67 -90 c-37 -50 -79 -110 -95 -133 -15 -24 -31 -40
-35 -38 -5 3 -22 29 -38 58 -51 89 -238 414 -488 847 -132 228 -264 456 -293
507 -40 70 -51 97 -46 115 11 34 82 174 122 241 l35 58 32 -53 c18 -29 84
-143 148 -253z"/>
<path d="M5485 5974 c-189 -42 -362 -176 -444 -346 -55 -114 -75 -207 -67
-325 17 -280 213 -518 486 -590 85 -23 234 -22 320 1 284 77 481 330 483 621
0 120 -19 200 -74 306 -132 253 -429 394 -704 333z m220 -44 c3 -6 -1 -7 -9
-4 -18 7 -21 14 -7 14 6 0 13 -4 16 -10z m25 -29 c25 -7 56 -14 70 -16 26 -4
172 -74 155 -75 -5 0 2 -8 15 -17 14 -10 26 -16 28 -15 15 14 183 -281 168
-295 -3 -3 1 -21 9 -41 18 -42 21 -127 6 -165 -6 -16 -11 -40 -11 -53 0 -14
-3 -23 -7 -21 -5 3 -8 -8 -9 -24 -1 -25 1 -27 14 -17 14 12 14 10 1 -12 -8
-14 -21 -32 -30 -40 -9 -8 -21 -30 -27 -48 -6 -18 -25 -44 -42 -59 -21 -17
-30 -32 -27 -45 3 -10 2 -16 -2 -13 -4 2 -24 -7 -45 -21 -26 -18 -36 -31 -31
-42 3 -9 3 -13 -1 -10 -3 4 -21 -4 -39 -17 -17 -14 -35 -22 -38 -18 -4 3 -7 0
-7 -7 0 -7 -3 -10 -7 -7 -3 4 -13 1 -22 -6 -22 -18 -74 -39 -66 -27 3 5 2 10
-3 10 -5 0 -14 -10 -20 -22 -6 -13 -11 -17 -11 -10 -1 9 -31 12 -117 12 -65 0
-124 5 -136 11 -11 6 -23 7 -27 3 -9 -13 -72 -11 -67 2 4 12 -60 44 -92 47
-12 0 -18 7 -16 17 2 9 -16 29 -46 50 -31 21 -62 55 -80 86 -16 28 -39 59 -50
69 -11 10 -20 27 -20 38 0 36 -23 97 -36 97 -11 0 -14 27 -13 122 0 67 3 127
7 132 4 6 7 13 8 16 1 3 5 20 9 38 4 17 12 32 17 32 5 0 6 5 3 10 -4 6 5 31
19 56 14 26 26 52 26 60 0 7 9 16 20 19 11 3 20 11 20 16 0 5 7 9 16 9 8 0 13
4 10 9 -3 4 4 17 15 27 11 10 17 24 14 31 -2 8 -1 12 4 9 5 -3 14 1 21 9 6 7
17 12 24 9 7 -3 18 7 26 20 10 20 19 24 39 20 18 -4 22 -3 13 4 -11 7 -8 11
12 16 14 3 26 10 26 15 0 5 16 9 35 9 20 0 45 6 56 14 26 17 177 16 239 -1z
m-629 -294 c-10 -9 -11 -8 -5 6 3 10 9 15 12 12 3 -3 0 -11 -7 -18z m-74 -279
c-3 -7 -5 -2 -5 12 0 14 2 19 5 13 2 -7 2 -19 0 -25z m8 -47 c3 -5 2 -12 -3
-15 -5 -3 -9 1 -9 9 0 17 3 19 12 6z m43 -146 c-3 -3 -9 2 -12 12 -6 14 -5 15
5 6 7 -7 10 -15 7 -18z"/>
<path d="M5530 5737 c-114 -26 -220 -109 -274 -214 -148 -293 102 -634 426
-582 133 22 236 97 295 217 34 67 38 86 41 164 5 105 -14 174 -67 251 -93 132
-266 199 -421 164z"/>
</g>
</svg>
